,
.   http://www.scenetime.com/signup.php  ---&gt;  Hottest scene tracker on the net !!!  

    Join Now   http://www.scenetime.com/signup.php

    seed back for speed


 



...................................NFO:.................................................[IMG]http://img191.imageshack.us/img191/5619/965ece8e24.jpg[/IMG]


[color=blue][size=5][b]50.50.2011.DVDScr.XVID.AC3.HQ.Hive-CM8[/b][/size][/color]


[b]Thx Hive

CM8 Doing It Right The First Time :D


Source: mp4 cookies
thx again

Encode:
thx for using constant framerate on this encode cookies, saves me hours of work.
dvd itself was a bit dark in places and colours a bit lifeless.
fixed that, added brightness, contrast, rgb and denoise.
btw i cut off the first 15 secs of property awards intro.
got very nice
enjoy

Video: 720x400 @bitrate 1700 2pass
Audio: English AC3 2.0 Stereo
Sample: Yes, included[/b]
 
http://www.imdb.com/title/tt1306980/


General
Complete name                  : 50.50.2011.DVDScr.XVID.AC3.HQ.Hive-CM8.avi
Format                         : AVI
Format/Info                    : Audio Video Interleave
File size                      : 1.37 GiB
Duration                       : 1h 39mn
Overall bit rate               : 1 967 Kbps
Writing application            : Nandub v1.0rc2
Writing library                : Nandub build 1853/release

Video
ID                             : 0
Format                         : MPEG-4 Visual
Format profile                 : Advanced Simple@L5
Format settings, BVOP          : 2
Format settings, QPel          : Yes
Format settings, GMC           : No warppoints
Format settings, Matrix        : Default (H.263)
Muxing mode                    : Packed bitstream
Codec ID                       : XVID
Codec ID/Hint                  : XviD
Duration                       : 1h 39mn
Bit rate                       : 1 699 Kbps
Width                          : 720 pixels
Height                         : 400 pixels
Display aspect ratio           : 16:9
Frame rate                     : 29.970 fps
Color space                    : YUV
Chroma subsampling             : 4:2:0
Bit depth                      : 8 bits
Scan type                      : Progressive
Compression mode               : Lossy
Bits/(Pixel*Frame)             : 0.197
Stream size                    : 1.18 GiB (86%)
Writing library                : XviD 1.2.1 (UTC 2008-12-04)

Audio
ID                             : 1
Format                         : AC-3
Format/Info                    : Audio Coding 3
Mode extension                 : CM (complete main)
Codec ID                       : 2000
Duration                       : 1h 39mn
Bit rate mode                  : Constant
Bit rate                       : 256 Kbps
Channel(s)                     : 2 channels
Channel positions              : Front: L R
Sampling rate                  : 48.0 KHz
Bit depth                      : 16 bits
Compression mode               : Lossy
Stream size                    : 183 MiB (13%)
Alignment                      : Split accross interleaves
Interleave, duration           : 33 ms (1.00 video frame)
Interleave, preload duration   : 500 ms


Plot:
Inspired by a true story, a comedy centered on a 27-year-old guy who learns of
his cancer diagnosis, and his subsequent struggle to beat the disease.


Cast:
Joseph Gordon-Levitt   ...    Adam
Seth Rogen             ...    Kyle
Anna Kendrick          ...    Katherine
Bryce Dallas Howard    ...    Rachael
Anjelica Huston        ...    Diane


[img]http://img695.imageshack.us/img695/7616/49986469.png[/img]
[img]http://img820.imageshack.us/img820/9015/5050.png[/img]
[img]http://img163.imageshack.us/img163/121/505050.png[/img]
[img]http://img830.imageshack.us/img830/9929/50505050.png[/img]
[img]http://img844.imageshack.us/img844/4707/5050505050.png[/img]
[img]http://img580.imageshack.us/img580/8472/505050505050.png[/img]
[img]http://img338.imageshack.us/img338/9295/50505500505050.png[/img]
[img]http://img21.imageshack.us/img21/9555/5050550500505050.png[/img]



Greetz

ViSiON,SPK,SANTi,3LT0N,FUSiON,YanKeeS,MAGNET,T0XiC,Feel-Free,FANTASIA-PLAY,FANTASIA-M,FLAWL3SS,
WBZ,BHRG,NOVA,D2U,THC,LKRG,Vik,Rapeseed,SAFC,goldadvance,MEMORY100,KaN1vE,Unevano,Pinnz,Wayne,
Mr Hive,and most P2P groups
Great Work Guys :D

LOOKING FOR ANYTHING YOU WANT TO LOOK AND SOUND BETTER

CM8@hushmail.com